FAILT01_SDP01_grf.mot
version=1
nRows=30
nColumns=19
inDegrees=yes
endheader
time	ground_force_vx	ground_force_vy	ground_force_vz	ground_force_px	ground_force_py	ground_force_pz	1_ground_force_vx	1_ground_force_vy	1_ground_force_vz	1_ground_force_px	1_ground_force_py	1_ground_force_pz	ground_torque_x	ground_torque_y	ground_torque_z	1_ground_torque_x	1_ground_torque_y	1_ground_torque_z
        2.2299997807	        0.0000000000	        0.0000000000	        0.0000000000	        0.0000000000	        0.0000000000	        0.0000000000	       14.7336517767	      722.8298504059	      -46.0894446157	       -0.5973945422	        0.0402843989	        0.6238227996	        0.0000000000	        0.0000000000	        0.0000000000	        0.0000000000	        3.5593503153	        0.0000000000
        2.2309997082	        0.0000000000	        0.0000000000	        0.0000000000	        0.0000000000	        0.0000000000	        0.0000000000	       14.6012529593	      721.6515079339	      -46.3066238465	       -0.5981395503	        0.0402843989	        0.6238969359	        0.0000000000	        0.0000000000	        0.0000000000	        0.0000000000	        3.6084796978	        0.0000000000
        2.2319998741	        0.0000000000	        0.0000000000	        0.0000000000	        0.0000000000	        0.0000000000	        0.0000000000	       14.4811498964	      720.4163031588	      -46.5177274566	       -0.5987647913	        0.0402843989	        0.6237315370	        0.0000000000	        0.0000000000	        0.0000000000	        0.0000000000	        3.6573692789	        0.0000000000
        2.2329998016	        0.0000000000	        0.0000000000	        0.0000000000	        0.0000000000	        0.0000000000	        0.0000000000	       14.3732088468	      719.1275072271	      -46.7222391186	       -0.5996955536	        0.0402843989	        0.6237387156	        0.0000000000	        0.0000000000	        0.0000000000	        0.0000000000	        3.7059562536	        0.0000000000
        2.2339997292	        0.0000000000	        0.0000000000	        0.0000000000	        0.0000000000	        0.0000000000	        0.0000000000	       14.2772011071	      717.7883634996	      -46.9197080497	       -0.6003648289	        0.0402843989	        0.6235147721	        0.0000000000	        0.0000000000	        0.0000000000	        0.0000000000	        3.7541807856	        0.0000000000
        2.2349998951	        0.0000000000	        0.0000000000	        0.0000000000	        0.0000000000	        0.0000000000	        0.0000000000	       14.1928019256	      716.4020835964	      -47.1097491987	       -0.6011583601	        0.0402843989	        0.6235617037	        0.0000000000	        0.0000000000	        0.0000000000	        0.0000000000	        3.8019861370	        0.0000000000
        2.2359998226	        0.0000000000	        0.0000000000	        0.0000000000	        0.0000000000	        0.0000000000	        0.0000000000	       14.1195902608	      714.9718427767	      -47.2920428087	       -0.6020098601	        0.0402843989	        0.6231663953	        0.0000000000	        0.0000000000	        0.0000000000	        0.0000000000	        3.8493187591	        0.0000000000
        2.2369997501	        0.0000000000	        0.0000000000	        0.0000000000	        0.0000000000	        0.0000000000	        0.0000000000	       14.0570494121	      713.5007746836	      -47.4663333807	       -0.6022287380	        0.0402843989	        0.6236032879	        0.0000000000	        0.0000000000	        0.0000000000	        0.0000000000	        3.8961283458	        0.0000000000
        2.2379999161	        0.0000000000	        0.0000000000	        0.0000000000	        0.0000000000	        0.0000000000	        0.0000000000	       14.0045685413	      711.9919654991	      -47.6324280745	       -0.6033545425	        0.0402843989	        0.6232929066	        0.0000000000	        0.0000000000	        0.0000000000	        0.0000000000	        3.9423678512	        0.0000000000
        2.2389998436	        0.0000000000	        0.0000000000	        0.0000000000	        0.0000000000	        0.0000000000	        0.0000000000	       13.9614450967	      710.4484475673	      -47.7901945814	       -0.6041841292	        0.0402843989	        0.6233484075	        0.0000000000	        0.0000000000	        0.0000000000	        0.0000000000	        3.9879934721	        0.0000000000
        2.2399997711	        0.0000000000	        0.0000000000	        0.0000000000	        0.0000000000	        0.0000000000	        0.0000000000	       13.9268881325	      708.8731925646	      -47.9395585134	       -0.6049795906	        0.0402843989	        0.6233319870	        0.0000000000	        0.0000000000	        0.0000000000	        0.0000000000	        4.0329645991	        0.0000000000
        2.2409996986	        0.0000000000	        0.0000000000	        0.0000000000	        0.0000000000	        0.0000000000	        0.0000000000	       13.9000225119	      707.2691043068	      -48.0805003539	       -0.6065462966	        0.0402843989	        0.6231809573	        0.0000000000	        0.0000000000	        0.0000000000	        0.0000000000	        4.0772437352	        0.0000000000
        2.2419998646	        0.0000000000	        0.0000000000	        0.0000000000	        0.0000000000	        0.0000000000	        0.0000000000	       13.8798939641	      705.6390112952	      -48.2130520216	       -0.6066727684	        0.0402843989	        0.6230803852	        0.0000000000	        0.0000000000	        0.0000000000	        0.0000000000	        4.1207963855	        0.0000000000
        2.2429997921	        0.0000000000	        0.0000000000	        0.0000000000	        0.0000000000	        0.0000000000	        0.0000000000	       13.8654749578	      703.9856591062	      -48.3372930981	       -0.6073904406	        0.0402843989	        0.6230903380	        0.0000000000	        0.0000000000	        0.0000000000	        0.0000000000	        4.1635909186	        0.0000000000
        2.2439997196	        0.0000000000	        0.0000000000	        0.0000000000	        0.0000000000	        0.0000000000	        0.0000000000	       13.8556713437	      702.3117027352	      -48.4533467738	       -0.6082011157	        0.0402843989	        0.6229136959	        0.0000000000	        0.0000000000	        0.0000000000	        0.0000000000	        4.2055984020	        0.0000000000
        2.2449998856	        0.0000000000	        0.0000000000	        0.0000000000	        0.0000000000	        0.0000000000	        0.0000000000	       13.8493297052	      700.6196990018	      -48.5613755655	       -0.6093352769	        0.0402843989	        0.6226303845	        0.0000000000	        0.0000000000	        0.0000000000	        0.0000000000	        4.2467924138	        0.0000000000
        2.2459998131	        0.0000000000	        0.0000000000	        0.0000000000	        0.0000000000	        0.0000000000	        0.0000000000	       13.8452453504	      698.9120991312	      -48.6615768568	       -0.6100689682	        0.0402843989	        0.6223400468	        0.0000000000	        0.0000000000	        0.0000000000	        0.0000000000	        4.2871488324	        0.0000000000
        2.2469997406	        0.0000000000	        0.0000000000	        0.0000000000	        0.0000000000	        0.0000000000	        0.0000000000	       13.8421708678	      697.1912416244	      -48.7541783161	       -0.6111032271	        0.0402843989	        0.6226154699	        0.0000000000	        0.0000000000	        0.0000000000	        0.0000000000	        4.3266456083	        0.0000000000
        2.2479999065	        0.0000000000	        0.0000000000	        0.0000000000	        0.0000000000	        0.0000000000	        0.0000000000	       13.8388251585	      695.4593455330	      -48.8394332367	       -0.6116932559	        0.0402843989	        0.6222994055	        0.0000000000	        0.0000000000	        0.0000000000	        0.0000000000	        4.3652625213	        0.0000000000
        2.2489998341	        0.0000000000	        0.0000000000	        0.0000000000	        0.0000000000	        0.0000000000	        0.0000000000	       13.8339028534	      693.7185042467	      -48.9176158496	       -0.6125960749	        0.0402843989	        0.6226245151	        0.0000000000	        0.0000000000	        0.0000000000	        0.0000000000	        4.4029809247	        0.0000000000
        2.2499997616	        0.0000000000	        0.0000000000	        0.0000000000	        0.0000000000	        0.0000000000	        0.0000000000	       13.8260840179	      691.9706798921	      -48.9890166488	       -0.6134225686	        0.0402843989	        0.6223890018	        0.0000000000	        0.0000000000	        0.0000000000	        0.0000000000	        4.4397834837	        0.0000000000
        2.2509999275	        0.0000000000	        0.0000000000	        0.0000000000	        0.0000000000	        0.0000000000	        0.0000000000	       13.8140440427	      690.2176984286	      -49.0539377743	       -0.6143563868	        0.0402843989	        0.6222805922	        0.0000000000	        0.0000000000	        0.0000000000	        0.0000000000	        4.4756539083	        0.0000000000
        2.2519998550	        0.0000000000	        0.0000000000	        0.0000000000	        0.0000000000	        0.0000000000	        0.0000000000	       13.7964636191	      688.4612455115	      -49.1126884919	       -0.6150300614	        0.0402843989	        0.6223810489	        0.0000000000	        0.0000000000	        0.0000000000	        0.0000000000	        4.5105766872	        0.0000000000
        2.2529997826	        0.0000000000	        0.0000000000	        0.0000000000	        0.0000000000	        0.0000000000	        0.0000000000	       13.7720386949	      686.7028631815	      -49.1655808106	       -0.6157270571	        0.0402843989	        0.6223047141	        0.0000000000	        0.0000000000	        0.0000000000	        0.0000000000	        4.5445368256	        0.0000000000
        2.2539997101	        0.0000000000	        0.0000000000	        0.0000000000	        0.0000000000	        0.0000000000	        0.0000000000	       13.7394903105	      684.9439474215	      -49.2129252761	       -0.6168243079	        0.0402843989	        0.6222641030	        0.0000000000	        0.0000000000	        0.0000000000	        0.0000000000	        4.5775195911	        0.0000000000
        2.2549998760	        0.0000000000	        0.0000000000	        0.0000000000	        0.0000000000	        0.0000000000	        0.0000000000	       13.6975742139	      683.1857466076	      -49.2550269743	       -0.6171893334	        0.0402843989	        0.6221028101	        0.0000000000	        0.0000000000	        0.0000000000	        0.0000000000	        4.6095102726	        0.0000000000
        2.2559998035	        0.0000000000	        0.0000000000	        0.0000000000	        0.0000000000	        0.0000000000	        0.0000000000	       13.6450901617	      681.4293608597	      -49.2921817781	       -0.6179285795	        0.0402843989	        0.6218478182	        0.0000000000	        0.0000000000	        0.0000000000	        0.0000000000	        4.6404939553	        0.0000000000
        2.2569997311	        0.0000000000	        0.0000000000	        0.0000000000	        0.0000000000	        0.0000000000	        0.0000000000	       13.5808908171	      679.6757422842	      -49.3246728666	       -0.6189375330	        0.0402843989	        0.6219255196	        0.0000000000	        0.0000000000	        0.0000000000	        0.0000000000	        4.6704553160	        0.0000000000
        2.2579998970	        0.0000000000	        0.0000000000	        0.0000000000	        0.0000000000	        0.0000000000	        0.0000000000	       13.5038901637	      677.9256960818	      -49.3527675431	       -0.6190356419	        0.0402843989	        0.6223599488	        0.0000000000	        0.0000000000	        0.0000000000	        0.0000000000	        4.6993784414	        0.0000000000
        2.2589998245	        0.0000000000	        0.0000000000	        0.0000000000	        0.0000000000	        0.0000000000	        0.0000000000	       13.4130713634	      676.1798824909	      -49.3767143732	       -0.6200572851	        0.0402843989	        0.6218368827	        0.0000000000	        0.0000000000	        0.0000000000	        0.0000000000	        4.7272466724	        0.0000000000
